<?xml version="1.0" standalone="no"?>
<!DOCTYPE svg PUBLIC "-//W3C//DTD SVG 20010904//EN"
 "http://www.w3.org/TR/2001/REC-SVG-20010904/DTD/svg10.dtd">
<svg version="1.0" xmlns="http://www.w3.org/2000/svg"
 width="260.000000pt" height="260.000000pt" viewBox="0 0 260.000000 260.000000"
 preserveAspectRatio="xMidYMid meet">
<metadata>
Created by potrace 1.14, written by Peter Selinger 2001-2017
</metadata>
<g transform="translate(0.000000,260.000000) scale(0.100000,-0.100000)"
fill="#000000" stroke="none">
<path d="M0 1300 l0 -1300 1300 0 1300 0 0 1300 0 1300 -1300 0 -1300 0 0
-1300z m2480 0 l0 -1180 -1180 0 -1180 0 0 1180 0 1180 1180 0 1180 0 0 -1180z"/>
<path d="M220 1300 l0 -1080 1080 0 1080 0 0 1080 0 1080 -1080 0 -1080 0 0
-1080z m1928 384 c16 -11 22 -24 20 -41 -4 -35 -688 -1081 -713 -1090 -11 -4
-26 -6 -34 -4 -8 1 -78 68 -155 148 l-141 145 -147 -73 c-132 -66 -149 -72
-172 -61 -38 17 -34 43 32 192 l57 131 473 240 c259 132 472 242 472 244 0 2
-19 -2 -42 -10 -205 -67 -992 -305 -1005 -304 -22 2 -248 236 -257 266 -5 15
-1 28 11 40 16 16 97 27 553 77 475 52 1006 112 1020 115 3 0 16 -6 28 -15z"/>
</g>
</svg>
